Coordinates
version=1
nRows=12
nColumns=38
inDegrees=yes

Units are S.I. units (second, meters, Newtons, ...)
Angles are in degrees.

endheader
time	pelvis_tilt	pelvis_list	pelvis_rotation	pelvis_tx	pelvis_ty	pelvis_tz	hip_flexion_r	hip_adduction_r	hip_rotation_r	knee_angle_r	ankle_angle_r	subtalar_angle_r	mtp_angle_r	hip_flexion_l	hip_adduction_l	hip_rotation_l	knee_angle_l	ankle_angle_l	subtalar_angle_l	mtp_angle_l	lumbar_extension	lumbar_bending	lumbar_rotation	arm_flex_r	arm_add_r	arm_rot_r	elbow_flex_r	pro_sup_r	wrist_flex_r	wrist_dev_r	arm_flex_l	arm_add_l	arm_rot_l	elbow_flex_l	pro_sup_l	wrist_flex_l	wrist_dev_l
      1.47000000	     -1.73191759	     -0.58532980	      7.28952662	      0.28025284	      0.88044023	     -0.20326521	     26.16279040	      4.37735948	      1.00052594	    -24.01256881	      0.76027369	     -8.12648210	      0.00000000	     -0.38997172	     -0.04186608	      4.35567350	    -45.03688178	     -1.29887053	     10.08473065	      0.00000000	     -7.28320354	      1.19321433	     -2.09342484	     -1.62022591	     -5.62017802	     38.29880872	     28.78441684	     40.79373024	      0.00000000	      0.00000000	      5.12855043	     -7.75950934	     20.18038981	     50.51875520	     40.79373024	      0.00000000	      0.00000000
      1.48000000	     -1.70925897	     -0.66338756	      7.23051159	      0.29220540	      0.88158630	     -0.20235949	     25.44380097	      4.75669474	      1.44761820	    -24.32574205	      1.62286468	     -8.45085387	      0.00000000	      1.18585412	     -0.15844645	      4.49344022	    -48.26642365	     -1.29387063	     10.99486262	      0.00000000	     -7.33689875	      1.40682988	     -1.74080380	     -1.46370890	     -5.57751695	     38.22836543	     28.58115104	     40.82924817	      0.00000000	      0.00000000	      5.20383899	     -7.65988969	     20.24243293	     50.43400999	     40.82924817	      0.00000000	      0.00000000
      1.49000000	     -1.59461754	     -0.83909109	      7.20049332	      0.30406182	      0.88274846	     -0.20141269	     24.55045820	      5.22750228	      1.78656194	    -24.47239525	      2.52265885	     -8.71408021	      0.00000000	      2.71725134	     -0.32263899	      4.52759692	    -51.40143888	     -0.57707460	     10.68893514	      0.00000000	     -7.48922542	      1.68420381	     -1.33641770	     -1.32342850	     -5.56252356	     38.18883443	     28.45553761	     40.85641178	      0.00000000	      0.00000000	      5.26474309	     -7.54771271	     20.31377771	     50.40702097	     40.85641178	      0.00000000	      0.00000000
      1.50000000	     -1.52122215	     -1.15072102	      7.21305045	      0.31569713	      0.88381262	     -0.20048338	     23.65696407	      5.79294105	      1.97700317	    -24.45513741	      3.24533498	     -8.95705444	      0.00000000	      4.47139484	     -0.82022840	      4.17317629	    -54.34079392	     -0.07631262	      9.91205823	      0.00000000	     -7.59244477	      2.07773685	     -0.91433182	     -1.18160038	     -5.58543572	     38.15610145	     28.29263264	     40.89943999	      0.00000000	      0.00000000	      5.32743987	     -7.38787691	     20.43267003	     50.37966024	     40.89943999	      0.00000000	      0.00000000
      1.51000000	     -1.42207194	     -1.36623933	      7.28366275	      0.32711495	      0.88503783	     -0.19967819	     22.71328133	      6.24637437	      2.16332417	    -24.38914508	      3.97649374	     -9.20781439	      0.00000000	      6.21642176	     -1.31801865	      3.61582477	    -56.97767754	      0.26181538	      8.57814731	      0.00000000	     -7.75747887	      2.31872370	     -0.50252069	     -0.96201294	     -5.60161054	     38.15181193	     28.21802536	     40.93942357	      0.00000000	      0.00000000	      5.39131780	     -7.24663491	     20.53671798	     50.35975728	     40.93942357	      0.00000000	      0.00000000
      1.52000000	     -1.29460500	     -1.33635888	      7.29928925	      0.33863251	      0.88654194	     -0.19908798	     21.70918177	      6.42669150	      2.32073596	    -24.35490965	      4.82751509	     -9.41281621	      0.00000000	      7.85714622	     -1.50258643	      3.07266272	    -59.22561421	      0.85665620	      7.34885963	      0.00000000	     -7.95864063	      2.33904729	     -0.18580119	     -0.72577959	     -5.57652787	     38.15974445	     28.23235835	     40.96038448	      0.00000000	      0.00000000	      5.40924204	     -7.16123752	     20.59146632	     50.33633900	     40.96038448	      0.00000000	      0.00000000
      1.53000000	     -1.35712256	     -1.26357605	      7.32757234	      0.34982477	      0.88791574	     -0.19857990	     20.86806483	      6.52868386	      2.56929186	    -24.20896299	      5.38931164	     -9.63375435	      0.00000000	      9.66979755	     -1.32575976	      2.86224061	    -61.05545161	      1.21471765	      5.38550893	      0.00000000	     -7.98054086	      2.25723751	      0.14905134	     -0.49939620	     -5.60390109	     38.21841581	     28.22485395	     41.00920383	      0.00000000	      0.00000000	      5.34933200	     -7.03650988	     20.70304231	     50.23635541	     41.00920383	      0.00000000	      0.00000000
      1.54000000	     -1.45060871	     -1.12253776	      7.33745571	      0.36092674	      0.88934902	     -0.19810300	     20.00906678	      6.55665016	      2.89899129	    -23.98442470	      6.02504421	     -9.77534468	      0.00000000	     11.54979268	     -1.29437940	      2.29838802	    -62.55886993	      1.92836815	      4.17832482	      0.00000000	     -7.98249289	      2.11834612	      0.43524327	     -0.17366396	     -5.58236713	     38.26733928	     28.28236911	     41.04296516	      0.00000000	      0.00000000	      5.18649879	     -7.01024932	     20.75270893	     50.08489617	     41.04296516	      0.00000000	      0.00000000
      1.55000000	     -1.62370832	     -0.90024327	      7.26072773	      0.37199361	      0.89075229	     -0.19741167	     19.17911055	      6.49885898	      3.18063242	    -23.65579412	      6.57727244	     -9.91953146	      0.00000000	     13.34793316	     -0.98648833	      1.89815592	    -63.55595404	      2.39631166	      2.76396372	      0.00000000	     -7.88826149	      1.79086714	      0.68643969	      0.14984455	     -5.57395730	     38.36347399	     28.35084931	     41.09094073	      0.00000000	      0.00000000	      5.03106690	     -6.95779178	     20.82022134	     49.90401831	     41.09094073	      0.00000000	      0.00000000
      1.56000000	     -1.81493057	     -0.66348793	      7.14610942	      0.38298706	      0.89219189	     -0.19672088	     18.34822865	      6.41044092	      3.33537523	    -23.21577765	      6.98604217	    -10.11587195	      0.00000000	     15.17629174	     -0.61881378	      1.65691424	    -64.16367990	      2.49200762	      2.00122096	      0.00000000	     -7.77941858	      1.48207417	      0.99052823	      0.97430408	     -5.79237513	     41.45032035	     27.60224124	     42.17909899	      0.00000000	      0.00000000	      5.22286177	     -7.06033262	     22.03708594	     48.80957211	     42.17909899	      0.00000000	      0.00000000
      1.57000000	     -1.90567463	     -0.35718702	      6.81147233	      0.39450160	      0.89386873	     -0.19569718	     17.26546922	      6.29560846	      3.87450779	    -22.67889003	      7.54377964	     -9.91633792	      0.00000000	     16.64499402	     -0.31756278	      1.06248905	    -64.20075125	      2.93309436	      1.35752012	      0.00000000	     -7.73339409	      1.08965697	      1.42910039	      1.32147965	     -5.76555997	     41.45256078	     27.63762257	     42.20401860	      0.00000000	      0.00000000	      4.82967842	     -7.08836957	     22.05266189	     48.72641196	     42.20401860	      0.00000000	      0.00000000
      1.58000000	     -2.10730919	     -0.14768737	      6.58792485	      0.40556489	      0.89532645	     -0.19477516	     16.28877155	      6.19527127	      4.06879347	    -21.96417536	      7.92935695	     -9.76758417	      0.00000000	     18.21593762	      0.01825591	      0.75508504	    -63.93220360	      3.15075261	      1.00409938	      0.00000000	     -7.59707968	      0.80363492	      1.74931808	      1.71715501	     -5.72332799	     41.44672599	     27.71898463	     42.21602841	      0.00000000	      0.00000000	      4.52361766	     -7.10708234	     22.07017824	     48.64803073	     42.21602841	      0.00000000	      0.00000000
